<?xml version="1.0" encoding="iso-8859-1"?>
<!-- Generator: Adobe Illustrator 19.0.0, SVG Export Plug-In . SVG Version: 6.00 Build 0)  -->
<svg version="1.1" id="Layer_1" xmlns="http://www.w3.org/2000/svg" xmlns:xlink="http://www.w3.org/1999/xlink" x="0px" y="0px"
	 viewBox="0 0 224.241 224.241" style="enable-background:new 0 0 224.241 224.241;" xml:space="preserve">
<g>
	<path style="fill:#ED1C24;" d="M222.267,81.566c-3.071,2.796-7.425,2.292-11.321,2.704c-3.071,0.321-6.784,1.329-9.809,0.321
		c-1.238,0-2.475-0.55-3.3-1.788c-4.446-7.059-7.746-13.613-17.646-12.421c-8.159,0.963-11.871,7.792-10.634,14.851
		c15.538,17.738,53.031,20.442,53.535,49.501c0.183,11.55-7.425,21.909-16.363,28.463c-2.246,1.696-5.867,4.4-9.579,6.05
		c-26.034,13.613-62.381,7.838-81.723-15.125c-3.713-4.4-6.738-9.304-9.35-14.438c-2.567-5.133-4.675-10.542-6.508-15.905
		c-3.942-11.459-4.95-30.388-13.017-39.83C62.122,55.623,30.45,84.086,32.1,113.512c2.017,36.164,35.293,39.235,59.768,25.392
		c0.779-0.458,1.604-0.504,2.292-0.275c0.779,0.046,1.467,0.458,2.017,1.1c0.138,0.229,0.321,0.504,0.413,0.779
		c1.237,3.163,2.108,6.509,3.071,9.809c0.917,3.162,2.154,6.279,2.567,9.579c0.183,1.925-1.237,3.254-2.933,3.621
		c-0.092,0.092-0.138,0.183-0.275,0.275c-22.459,16.042-59.86,16.088-80.944-3.163c-20.58-18.838-23.055-54.497-10.129-78.102
		c13.2-24.017,40.93-37.722,67.927-31.58c21.359,4.904,34.238,19.892,43.405,37.722c7.517,10.221,10.13,23.513,15.675,34.834
		c7.929,16.225,44.047,39.739,55.047,14.896c-7.517-19.205-41.801-15.63-53.718-33.872c-8.755-13.429-3.85-30.618,6.875-41.205
		c22.092-21.817,74.848-23.834,81.036,14.025c0.229,1.375-0.413,2.567-1.329,3.346C222.68,81.016,222.542,81.337,222.267,81.566z"/>
</g>
<g>
</g>
<g>
</g>
<g>
</g>
<g>
</g>
<g>
</g>
<g>
</g>
<g>
</g>
<g>
</g>
<g>
</g>
<g>
</g>
<g>
</g>
<g>
</g>
<g>
</g>
<g>
</g>
<g>
</g>
</svg>
